<svg xmlns="http://www.w3.org/2000/svg" version="1.1" xmlns:xlink="http://www.w3.org/1999/xlink" xmlns:svgjs="http://svgjs.dev/svgjs" viewBox="0 0 21.764158102659756 7.051360656199085"><g transform="matrix(1,0,0,1,6.460574093998181,1.879105239401753)"><g><path d=" M 0.1664678583070885 0.017102862154837917 L 0.46177727818062214 0.017102862154837917 Q 0.5176466278864258 0.017102862154837917 0.5843477902902935 0.02223372080128927 Q 0.6510489526941611 0.027364579447740622 0.7177501150980288 0.046177727818062175 Q 0.7844512775018964 0.06499087618838395 0.846591676664474 0.10375736373934963 Q 0.9087320758270515 0.14252385129031553 0.9566200898605975 0.20922501369418312 Q 1.0045081038941435 0.2759261760980509 1.033582969557368 0.37626296740643284 Q 1.0626578352205922 0.47659975871481497 1.0626578352205922 0.6202638008154531 L 1.0626578352205922 0.6886752494348045 Q 1.0626578352205922 0.8448813904489902 1.0358633511780129 0.9560499944554364 Q 1.0090688671354335 1.0672185984618823 0.9646014255328552 1.1430412873483302 Q 0.9201339839302768 1.2188639762347782 0.8614141571986668 1.2644716086476788 Q 0.8026943304670567 1.31007924106058 0.7394137404941568 1.3334531526721918 Q 0.6761331505212567 1.3568270642838034 0.611712369738034 1.3642383045509 Q 0.5472915889548114 1.3716495448179962 0.4902820484386852 1.3716495448179962 L 0.46177727818062214 1.3716495448179962 L 0.46177727818062214 1.9645487661857086 L 0.1664678583070885 1.9645487661857086 L 0.1664678583070885 0.017102862154837917 M 0.47659975871481497 1.1550132908567168 Q 0.5564131154373916 1.1550132908567168 0.6111422743328728 1.131639379245105 Q 0.665871433228354 1.108265467633493 0.6983668713225458 1.0586671673844634 Q 0.7308623094167378 1.0090688671354338 0.7451146945457693 0.9309657966283407 Q 0.7593670796748009 0.8528627261212478 0.7593670796748009 0.7434044083302855 L 0.7593670796748009 0.567815023540617 Q 0.7593670796748009 0.48116052195610504 0.7468249807612531 0.41787993198320494 Q 0.7342828818477054 0.35459934201030485 0.7017874437535134 0.31355247283869403 Q 0.6692920056593215 0.2725056036670832 0.6145628467638403 0.2525522644864391 Q 0.5598336878683592 0.23259892530579496 0.47659975871481497 0.23259892530579496 L 0.46177727818062214 0.23259892530579496 L 0.46177727818062214 1.1550132908567168 L 0.47659975871481497 1.1550132908567168 M 1.2849950432334842 0.017102862154837917 L 1.580304463107018 0.017102862154837917 L 1.580304463107018 1.7319498408799137 L 1.9827918191508689 1.7319498408799137 L 1.9827918191508689 1.9645487661857086 L 1.2849950432334842 1.9645487661857086 L 1.2849950432334842 0.017102862154837917 M 2.3829987935740746 0.017102862154837917 L 2.7227756550501865 0.017102862154837917 L 3.083075951112104 1.9645487661857086 L 2.7843459588076027 1.9645487661857086 L 2.730756990722444 1.6156503782270164 L 2.3750174579018166 1.6156503782270164 L 2.323708871437303 1.9645487661857086 L 2.0238386883224795 1.9645487661857086 L 2.3829987935740746 0.017102862154837917 M 2.6965512664127687 1.3933131702141242 L 2.5597283691740658 0.4230107906296563 L 2.547186270260518 0.4230107906296563 L 2.4092231822114925 1.3933131702141242 L 2.6965512664127687 1.3933131702141242 M 3.689657462203687 1.9816516283405465 Q 3.644049829790786 1.9816516283405465 3.591030957110789 1.97424038807345 Q 3.5380120844307914 1.9668291478063538 3.484993211750794 1.9428851407895806 Q 3.4319743390707966 1.9189411337728077 3.383516229632089 1.8750437875753905 Q 3.335058120193382 1.8311464413779732 3.2980019188578997 1.7593144203276543 Q 3.260945717522418 1.6874823992773353 3.2387119967211286 1.5820147493225019 Q 3.2164782759198394 1.4765470993676684 3.2164782759198394 1.3306026756463853 L 3.2164782759198394 0.6407872354012585 Q 3.2164782759198394 0.4937026208696529 3.23928209212629 0.38937516172514197 Q 3.2620859083327405 0.28504770258063106 3.2997122050733836 0.21378577693547318 Q 3.337338501814027 0.14252385129031553 3.3863667066578955 0.10033679130838213 Q 3.435394911501764 0.05814973132644874 3.4878436887766 0.03591601052515947 Q 3.540292466051436 0.013682289723870422 3.592171147921111 0.006841144861935211 Q 3.644049829790786 0 3.6885172713933643 0 Q 3.8048167340462618 0 3.882919804553355 0.032495438094191975 Q 3.9610228750604475 0.06499087618838395 4.0083407936888324 0.12143032129934883 Q 4.055658712317217 0.1778697664103137 4.0756120514978615 0.25312235989160037 Q 4.095565390678505 0.328374953372887 4.095565390678505 0.4127490733367536 Q 4.095565390678505 0.4754595679044924 4.0892943412217315 0.5284784405844898 Q 4.083023291764958 0.5814973132644872 4.0704811928514095 0.6453479986425485 L 3.83104112268368 0.6453479986425485 L 3.83104112268368 0.546151398144489 Q 3.83104112268368 0.3853844938890132 3.7956952075636816 0.30557113716643647 Q 3.760349292443683 0.22575778044385975 3.691937843824332 0.22575778044385975 Q 3.650890974652721 0.22575778044385975 3.620105822774013 0.2417204517883751 Q 3.589320670895305 0.25768312313289043 3.5687972363094995 0.29587951527869505 Q 3.5482738017236937 0.33407590742449944 3.53744198902563 0.39678640199223825 Q 3.526610176327566 0.45949689655997705 3.526610176327566 0.5529925430064242 L 3.526610176327566 1.4423413750579925 Q 3.526610176327566 1.5335566398837945 3.535161607404985 1.5939867528308884 Q 3.543713038482404 1.654416865777982 3.5630962822578867 1.6909029717083028 Q 3.5824795260333695 1.7273890776386236 3.613834773317239 1.7427816535779777 Q 3.6451900206011083 1.7581742295173317 3.689657462203687 1.7581742295173317 Q 3.71816223246175 1.7581742295173317 3.744386621099168 1.7450620351986228 Q 3.770611009736586 1.7319498408799137 3.79056434891723 1.704015166027012 Q 3.8105176880978746 1.67608049117411 3.8224896916062607 1.6333233357870154 Q 3.8344616951146473 1.5905661803999207 3.8344616951146473 1.5324164490734722 L 3.8344616951146473 1.3420045837496106 L 4.104686917161086 1.3420045837496106 L 4.104686917161086 1.5221547317805695 Q 4.104686917161086 1.7570340387070094 3.9975089809907685 1.8687727381186165 Q 3.890331044820451 1.980511437530224 3.689657462203687 1.9816516283405465 M 4.336145651656558 0.017102862154837917 L 5.057886434590716 0.017102862154837917 L 5.057886434590716 0.24970178746063287 L 4.631455071530092 0.24970178746063287 L 4.631455071530092 0.8323392915354424 L 4.960970215713301 0.8323392915354424 L 4.960970215713301 1.0649382168412374 L 4.631455071530092 1.0649382168412374 L 4.631455071530092 1.7319498408799137 L 5.069288342693941 1.7319498408799137 L 5.069288342693941 1.9645487661857086 L 4.336145651656558 1.9645487661857086 L 4.336145651656558 0.017102862154837917 M 5.281363833413931 0.017102862154837917 L 5.666748327302944 0.017102862154837917 L 5.853739620195838 0.7707689877780262 Q 5.883384581264223 0.8961899769135038 5.9004874434190615 1.009638962540595 Q 5.917590305573899 1.123087948167686 5.933552976918414 1.223424739476068 L 5.942674503400994 1.223424739476068 Q 5.95863717474551 1.123087948167686 5.975740036900348 1.009638962540595 Q 5.992842899055185 0.8961899769135038 6.022487860123571 0.7707689877780262 L 6.215180107068077 0.017102862154837917 L 6.5925832652848335 0.017102862154837917 L 6.5925832652848335 1.9645487661857086 L 6.316657089186782 1.9645487661857086 L 6.316657089186782 1.3203409583534826 Q 6.316657089186782 1.1721161530115545 6.319507566212589 1.0352932557728516 Q 6.322358043238395 0.8984703585341489 6.326918806479685 0.7838811820967353 Q 6.331479569720975 0.6692920056593215 6.337180523772588 0.5814973132644872 Q 6.3428814778242 0.4937026208696529 6.34744224106549 0.44239403440513936 L 6.325778615669362 0.44239403440513936 L 6.031609386606151 1.7137067879147534 L 5.844618093713257 1.7137067879147534 L 5.548168483029401 0.44239403440513936 L 5.526504857633273 0.44239403440513936 Q 5.531065620874563 0.4937026208696529 5.536766574926176 0.5814973132644872 Q 5.542467528977789 0.6692920056593215 5.547028292219078 0.7838811820967353 Q 5.551589055460369 0.8984703585341489 5.554439532486175 1.0352932557728516 Q 5.5572900095119815 1.1721161530115545 5.5572900095119815 1.3203409583534826 L 5.5572900095119815 1.9645487661857086 L 5.281363833413931 1.9645487661857086 L 5.281363833413931 0.017102862154837917 M 6.924378791088687 0.017102862154837917 L 7.646119574022845 0.017102862154837917 L 7.646119574022845 0.24970178746063287 L 7.219688210962221 0.24970178746063287 L 7.219688210962221 0.8323392915354424 L 7.54920335514543 0.8323392915354424 L 7.54920335514543 1.0649382168412374 L 7.219688210962221 1.0649382168412374 L 7.219688210962221 1.7319498408799137 L 7.65752148212607 1.7319498408799137 L 7.65752148212607 1.9645487661857086 L 6.924378791088687 1.9645487661857086 L 6.924378791088687 0.017102862154837917 M 7.869596972846059 0.017102862154837917 L 8.109037043013789 0.017102862154837917 L 8.581076038487314 1.3203409583534826 L 8.58791718334925 1.3203409583534826 Q 8.584496610918281 1.2747333259405818 8.578795656866669 1.2188639762347782 Q 8.573094702815057 1.1629946265289743 8.568533939573767 1.0917327008838167 Q 8.563973176332476 1.020470775238659 8.56055260390151 0.9303957012231796 Q 8.557132031470541 0.8403206272077002 8.557132031470541 0.7274417369857702 L 8.557132031470541 0.017102862154837917 L 8.821656299465367 0.017102862154837917 L 8.821656299465367 1.9645487661857086 L 8.579935847676992 1.9645487661857086 L 8.110177233824112 0.6955163942967395 L 8.101055707341532 0.6955163942967395 Q 8.104476279772499 0.7468249807612533 8.110177233824112 0.8066849983031856 Q 8.115878187875724 0.8665450158451182 8.120438951117015 0.9474985633780173 Q 8.124999714358305 1.0284521109109166 8.128420286789272 1.136200142486395 Q 8.13184085922024 1.2439481740618734 8.13184085922024 1.3921729794038016 L 8.13184085922024 1.9645487661857086 L 7.869596972846059 1.9645487661857086 L 7.869596972846059 0.017102862154837917 M 9.33360197330018 0.24970178746063287 L 9.020049500461486 0.24970178746063287 L 9.020049500461486 0.017102862154837917 L 9.941323675202085 0.017102862154837917 L 9.941323675202085 0.24970178746063287 L 9.628911393173713 0.24970178746063287 L 9.628911393173713 1.9645487661857086 L 9.33360197330018 1.9645487661857086 L 9.33360197330018 0.24970178746063287 M 10.559307094396893 1.9816516283405465 Q 10.513699461983991 1.9816516283405465 10.460680589303994 1.97424038807345 Q 10.407661716623997 1.9668291478063538 10.354642843944 1.9428851407895806 Q 10.301623971264002 1.9189411337728077 10.253165861825295 1.8750437875753905 Q 10.204707752386588 1.8311464413779732 10.167651551051106 1.7593144203276543 Q 10.130595349715623 1.6874823992773353 10.108361628914334 1.5820147493225019 Q 10.086127908113045 1.4765470993676684 10.086127908113045 1.3306026756463853 L 10.086127908113045 0.6407872354012585 Q 10.086127908113045 0.4937026208696529 10.108931724319495 0.38937516172514197 Q 10.131735540525947 0.28504770258063106 10.169361837266589 0.21378577693547318 Q 10.206988134007233 0.14252385129031553 10.2560163388511 0.10033679130838213 Q 10.30504454369497 0.05814973132644874 10.357493320969805 0.03591601052515947 Q 10.409942098244642 0.013682289723870422 10.461820780114317 0.006841144861935211 Q 10.513699461983991 0 10.55816690358657 0 Q 10.674466366239468 0 10.75256943674656 0.032495438094191975 Q 10.830672507253652 0.06499087618838395 10.877990425882038 0.12143032129934883 Q 10.925308344510423 0.1778697664103137 10.945261683691067 0.25312235989160037 Q 10.96521502287171 0.328374953372887 10.96521502287171 0.4127490733367536 Q 10.96521502287171 0.4754595679044924 10.958943973414938 0.5284784405844898 Q 10.952672923958163 0.5814973132644872 10.940130825044616 0.6453479986425485 L 10.700690754876886 0.6453479986425485 L 10.700690754876886 0.546151398144489 Q 10.700690754876886 0.3853844938890132 10.665344839756887 0.30557113716643647 Q 10.629998924636888 0.22575778044385975 10.561587476017538 0.22575778044385975 Q 10.520540606845927 0.22575778044385975 10.489755454967218 0.2417204517883751 Q 10.45897030308851 0.25768312313289043 10.438446868502705 0.29587951527869505 Q 10.417923433916899 0.33407590742449944 10.407091621218836 0.39678640199223825 Q 10.396259808520771 0.45949689655997705 10.396259808520771 0.5529925430064242 L 10.396259808520771 1.4423413750579925 Q 10.396259808520771 1.5335566398837945 10.40481123959819 1.5939867528308884 Q 10.41336267067561 1.654416865777982 10.432745914451093 1.6909029717083028 Q 10.452129158226576 1.7273890776386236 10.483484405510445 1.7427816535779777 Q 10.514839652794315 1.7581742295173317 10.559307094396893 1.7581742295173317 Q 10.587811864654956 1.7581742295173317 10.614036253292374 1.7450620351986228 Q 10.640260641929792 1.7319498408799137 10.660213981110436 1.704015166027012 Q 10.68016732029108 1.67608049117411 10.692139323799466 1.6333233357870154 Q 10.704111327307853 1.5905661803999207 10.704111327307853 1.5324164490734722 L 10.704111327307853 1.3420045837496106 L 10.974336549354291 1.3420045837496106 L 10.974336549354291 1.5221547317805695 Q 10.974336549354291 1.7570340387070094 10.867158613183975 1.8687727381186165 Q 10.759980677013656 1.980511437530224 10.559307094396893 1.9816516283405465 M 11.205795283849763 0.017102862154837917 L 11.92753606678392 0.017102862154837917 L 11.92753606678392 0.24970178746063287 L 11.501104703723296 0.24970178746063287 L 11.501104703723296 0.8323392915354424 L 11.830619847906506 0.8323392915354424 L 11.830619847906506 1.0649382168412374 L 11.501104703723296 1.0649382168412374 L 11.501104703723296 1.7319498408799137 L 11.938937974887146 1.7319498408799137 L 11.938937974887146 1.9645487661857086 L 11.205795283849763 1.9645487661857086 L 11.205795283849763 0.017102862154837917 M 12.151013465607136 0.017102862154837917 L 12.446322885480669 0.017102862154837917 L 12.446322885480669 1.7319498408799137 L 12.84881024152452 1.7319498408799137 L 12.84881024152452 1.9645487661857086 L 12.151013465607136 1.9645487661857086 L 12.151013465607136 0.017102862154837917 M 13.034661343607091 0.017102862154837917 L 13.329970763480624 0.017102862154837917 L 13.329970763480624 1.7319498408799137 L 13.732458119524475 1.7319498408799137 L 13.732458119524475 1.9645487661857086 L 13.034661343607091 1.9645487661857086 L 13.034661343607091 0.017102862154837917" fill="#000000" fill-rule="nonzero"></path></g><g><path d=" M 0.461673973537704 3.1719469862520295 L 0.461673973537704 3.2931501773955794 L 0.09255516414598362 3.2931501773955794 L 0.09255516414598362 2.5251626844223583 L 0.23248975755717316 2.5251626844223583 L 0.23248975755717316 3.1719469862520295 L 0.461673973537704 3.1719469862520295 M 0.5432187359314116 3.12897494575568 L 0.6721348574204602 3.12897494575568 L 0.6721348574204602 3.2931501773955794 L 0.5432187359314116 3.2931501773955794 L 0.5432187359314116 3.12897494575568 M 1.4803564512605498 2.619646081154716 Q 1.5701569974259981 2.7141294778870746 1.5701569974259981 2.899790729775149 Q 1.5701569974259981 3.0204429973225917 1.5296641131121302 3.1088662344977727 Q 1.4891712287982624 3.1972894716729536 1.4106646163530085 3.2452198245342663 Q 1.3321580039077545 3.2931501773955794 1.2208714374941314 3.2931501773955794 L 1.023640790087809 3.2931501773955794 L 1.023640790087809 2.5251626844223583 L 1.2219732846863454 2.5251626844223583 Q 1.3905559050951013 2.5251626844223583 1.4803564512605498 2.619646081154716 M 1.34042185784936 3.13448418171675 Q 1.387250363518459 3.097021377181471 1.4070836129783126 3.03669524340775 Q 1.4269168624381663 2.976369109634028 1.4269168624381663 2.9030962713517914 Q 1.4269168624381663 2.786300468977098 1.3776092005865856 2.7108239363104323 Q 1.3283015387350052 2.635347403643767 1.217565895917489 2.635347403643767 L 1.1657790778834267 2.635347403643767 L 1.1657790778834267 3.1719469862520295 L 1.217565895917489 3.1719469862520295 Q 1.2935933521802614 3.1719469862520295 1.34042185784936 3.13448418171675 M 1.6560951602941294 3.12897494575568 L 1.785011281783178 3.12897494575568 L 1.785011281783178 3.2931501773955794 L 1.6560951602941294 3.2931501773955794 L 1.6560951602941294 3.12897494575568 M 2.245600086479722 3.2614720706194245 Q 2.174530942581913 3.2165717975367 2.13128344028751 3.1245675569868236 Q 2.088035937993107 3.032563316436947 2.088035937993107 2.8986888825829347 Q 2.088035937993107 2.7769347678432776 2.1310079784894564 2.689613377860311 Q 2.173980018985806 2.6022919878773445 2.2475283190660966 2.5571162529965665 Q 2.321076619146387 2.511940518115789 2.4119790125040494 2.511940518115789 Q 2.467622295710861 2.511940518115789 2.5061869474383545 2.5226835282398765 Q 2.5447515991658474 2.5334265383639636 2.566788543010129 2.5474750900646934 Q 2.588825486854411 2.5615236417654232 2.609209659910372 2.5802550440330627 L 2.547506217146383 2.6959489992155423 Q 2.5282238912826362 2.6750139025634745 2.513348954187746 2.6637199688432798 Q 2.498474017092856 2.6524260351230855 2.4756106878544135 2.6455394901717475 Q 2.452747358615971 2.6386529452204095 2.41748824846512 2.6386529452204095 Q 2.3623958888544156 2.6386529452204095 2.3227293899347083 2.6708819755926716 Q 2.283062891015001 2.7031110059649337 2.262127794362933 2.7601315981620127 Q 2.2411926977108654 2.817152190359092 2.2411926977108654 2.890975952237436 Q 2.2411926977108654 2.98353111638342 2.262954179757094 3.049091024320158 Q 2.284715661803322 3.1146509322568967 2.3219030045405478 3.1477063480233194 Q 2.3590903472777733 3.180761763789742 2.4053679293507653 3.180761763789742 Q 2.4544001294042923 3.180761763789742 2.4921383957376246 3.166988673887066 Q 2.5298766620709574 3.15321558398439 2.549709911530811 3.1322804873323222 L 2.610311507102586 3.241363359361517 Q 2.576705167740056 3.268909539166869 2.529050276676797 3.2876409414345087 Q 2.4813953856135376 3.3063723437021486 2.3998586933896946 3.3063723437021486 Q 2.316669230377531 3.3063723437021486 2.245600086479722 3.2614720706194245 M 2.805853874973182 3.257615605446675 Q 2.7336828838831586 3.2088588671912013 2.6967710029439864 3.1193337828238064 Q 2.6598591220048147 3.029808698456412 2.6598591220048147 2.9086055073128616 Q 2.6598591220048147 2.7885041633615257 2.696495541145933 2.698979078994131 Q 2.733131960287052 2.609453994626736 2.804476565982914 2.5606972563712627 Q 2.8758211716787763 2.511940518115789 2.9771911133624727 2.511940518115789 Q 3.0824175202189186 2.511940518115789 3.1545885113089414 2.5612481799673694 Q 3.226759502398964 2.6105558418189503 3.2628449979439758 2.6998054643882914 Q 3.2989304934889874 2.789055086957633 3.2989304934889874 2.9086055073128616 Q 3.2989304934889874 3.029808698456412 3.261743150751762 3.1193337828238064 Q 3.2245558080145362 3.2088588671912013 3.15293574052062 3.257615605446675 Q 3.081315673026704 3.3063723437021486 2.980496654939115 3.3063723437021486 Q 2.8780248660632046 3.3063723437021486 2.805853874973182 3.257615605446675 M 3.0683689685181887 3.157072049157139 Q 3.1072090820437355 3.1256694041790376 3.1297969494841245 3.06176226703062 Q 3.152384816924513 2.997855129882203 3.152384816924513 2.9052999657362193 Q 3.152384816924513 2.769221837497779 3.106382696649575 2.697877231801917 Q 3.0603805763746363 2.626532626106054 2.9771911133624727 2.626532626106054 Q 2.896205344734737 2.626532626106054 2.85185599524812 2.697877231801917 Q 2.8075066457615026 2.769221837497779 2.8075066457615026 2.9064018129284337 Q 2.8075066457615026 3.000058824266631 2.828717204211624 3.063139576020888 Q 2.8499277626617454 3.126220327775145 2.888767876187292 3.1573475109551925 Q 2.927607989712839 3.1884746941352407 2.980496654939115 3.1884746941352407 Q 3.029528854992642 3.1884746941352407 3.0683689685181887 3.157072049157139 M 3.803598565987338 3.1719469862520295 L 3.803598565987338 3.2931501773955794 L 3.4344797565956173 3.2931501773955794 L 3.4344797565956173 2.5251626844223583 L 3.574414350006807 2.5251626844223583 L 3.574414350006807 3.1719469862520295 L 3.803598565987338 3.1719469862520295 M 4.293928636692473 3.1719469862520295 L 4.293928636692473 3.2931501773955794 L 3.9248098273007526 3.2931501773955794 L 3.9248098273007526 2.5251626844223583 L 4.064744420711943 2.5251626844223583 L 4.064744420711943 3.1719469862520295 L 4.293928636692473 3.1719469862520295 M 4.834943678239457 3.168641444675387 L 4.834943678239457 3.2931501773955794 L 4.411834356429246 3.2931501773955794 L 4.411834356429246 2.5251626844223583 L 4.812906734395175 2.5251626844223583 L 4.812906734395175 2.645264028373694 L 4.549565255456007 2.645264028373694 L 4.549565255456007 2.8248651207045907 L 4.758916221976684 2.8248651207045907 L 4.758916221976684 2.9416609230792843 L 4.549565255456007 2.9416609230792843 L 4.549565255456007 3.168641444675387 L 4.834943678239457 3.168641444675387 M 5.536799895249508 2.987938505152276 Q 5.536799895249508 3.13448418171675 5.472892758101091 3.2237338042860917 Q 5.408985620952674 3.312983426855433 5.242606694928345 3.312983426855433 Q 5.150051530782362 3.312983426855433 5.077054154298178 3.2639512268019057 Q 5.004056777813995 3.2149190267483787 4.962462046307913 3.122088400804342 Q 4.920867314801831 3.0292577748603047 4.920867314801831 2.901994424159577 Q 4.920867314801831 2.789055086957633 4.964390278894288 2.7003563879843986 Q 5.007913242986745 2.6116576890111642 5.085318008239784 2.5617991035634766 Q 5.162722773492824 2.511940518115789 5.261338097195985 2.511940518115789 Q 5.328550775921045 2.511940518115789 5.372900125407662 2.522408066441823 Q 5.417249474894279 2.532875614767857 5.441490113122989 2.54719962826664 Q 5.465730751351699 2.5615236417654232 5.485013077215446 2.5802550440330627 L 5.424411481643671 2.7025600823688265 Q 5.378684823166786 2.641958486797052 5.263541791580414 2.641958486797052 Q 5.208449431969709 2.641958486797052 5.1638246206850384 2.6744629789673673 Q 5.119199809400367 2.706967471137683 5.093857323979443 2.76536537232503 Q 5.068514838558519 2.8237632735123768 5.068514838558519 2.8986888825829347 Q 5.068514838558519 2.98904035234449 5.090276320604747 3.054875722079282 Q 5.112037802650976 3.120711091814074 5.151979763368737 3.1551438165707646 Q 5.191921724086497 3.1895765413274546 5.244810389312774 3.1895765413274546 Q 5.327999852324938 3.1895765413274546 5.364636271466057 3.1504609660038545 Q 5.401272690607175 3.1113453906802544 5.401272690607175 3.03201239284084 Q 5.401272690607175 3.0231976153031273 5.40017084341496 3.0022625186510594 L 5.242606694928345 3.0022625186510594 L 5.242606694928345 2.8810593275075096 L 5.530188812096224 2.8810593275075096 Q 5.536799895249508 2.949373853424783 5.536799895249508 2.987938505152276 M 6.085551001628936 3.168641444675387 L 6.085551001628936 3.2931501773955794 L 5.662441679818725 3.2931501773955794 L 5.662441679818725 2.5251626844223583 L 6.063514057784654 2.5251626844223583 L 6.063514057784654 2.645264028373694 L 5.800172578845486 2.645264028373694 L 5.800172578845486 2.8248651207045907 L 6.0095235453661635 2.8248651207045907 L 6.0095235453661635 2.9416609230792843 L 5.800172578845486 2.9416609230792843 L 5.800172578845486 3.168641444675387 L 6.085551001628936 3.168641444675387 M 6.529026742121404 3.257615605446675 Q 6.456855751031381 3.2088588671912013 6.419943870092209 3.1193337828238064 Q 6.383031989153037 3.029808698456412 6.383031989153037 2.9086055073128616 Q 6.383031989153037 2.7885041633615257 6.4196684082941555 2.698979078994131 Q 6.456304827435274 2.609453994626736 6.5276494331311365 2.5606972563712627 Q 6.598994038826999 2.511940518115789 6.700363980510695 2.511940518115789 Q 6.805590387367141 2.511940518115789 6.877761378457164 2.5612481799673694 Q 6.949932369547187 2.6105558418189503 6.986017865092198 2.6998054643882914 Q 7.022103360637209 2.789055086957633 7.022103360637209 2.9086055073128616 Q 7.022103360637209 3.029808698456412 6.984916017899984 3.1193337828238064 Q 6.947728675162758 3.2088588671912013 6.876108607668843 3.257615605446675 Q 6.804488540174927 3.3063723437021486 6.7036695220873375 3.3063723437021486 Q 6.601197733211427 3.3063723437021486 6.529026742121404 3.257615605446675 M 6.791541835666411 3.157072049157139 Q 6.830381949191958 3.1256694041790376 6.8529698166323465 3.06176226703062 Q 6.875557684072736 2.997855129882203 6.875557684072736 2.9052999657362193 Q 6.875557684072736 2.769221837497779 6.829555563797797 2.697877231801917 Q 6.783553443522859 2.626532626106054 6.700363980510695 2.626532626106054 Q 6.619378211882959 2.626532626106054 6.575028862396342 2.697877231801917 Q 6.5306795129097255 2.769221837497779 6.5306795129097255 2.9064018129284337 Q 6.5306795129097255 3.000058824266631 6.551890071359846 3.063139576020888 Q 6.573100629809968 3.126220327775145 6.611940743335515 3.1573475109551925 Q 6.650780856861061 3.1884746941352407 6.7036695220873375 3.1884746941352407 Q 6.7527017221408645 3.1884746941352407 6.791541835666411 3.157072049157139 M 7.2986890643472435 2.646365875565908 L 7.2986890643472435 2.8480039117410865 L 7.525669585943346 2.8480039117410865 L 7.525669585943346 2.9714107972690647 L 7.2986890643472435 2.9714107972690647 L 7.2986890643472435 3.2931501773955794 L 7.15765262374384 3.2931501773955794 L 7.15765262374384 2.5251626844223583 L 7.558725001709769 2.5251626844223583 L 7.558725001709769 2.646365875565908 L 7.2986890643472435 2.646365875565908 M 8.29805532149291 3.168641444675387 L 8.29805532149291 3.2931501773955794 L 7.8749459996827005 3.2931501773955794 L 7.8749459996827005 2.5251626844223583 L 8.27601837764863 2.5251626844223583 L 8.27601837764863 2.645264028373694 L 8.012676898709461 2.645264028373694 L 8.012676898709461 2.8248651207045907 L 8.222027865230139 2.8248651207045907 L 8.222027865230139 2.9416609230792843 L 8.012676898709461 2.9416609230792843 L 8.012676898709461 3.168641444675387 L 8.29805532149291 3.168641444675387 M 8.978976441850895 2.5251626844223583 L 8.978976441850895 3.3085760380865765 L 8.967957969928754 3.3085760380865765 L 8.599941007729248 2.888772257853008 L 8.565783744770611 2.8446983701644446 L 8.57129298073168 2.951577547809211 L 8.57129298073168 3.2931501773955794 L 8.435765776089347 3.2931501773955794 L 8.435765776089347 2.511940518115789 L 8.447886095203703 2.511940518115789 L 8.810393821442139 2.935049839926 L 8.848958473169633 2.985183887171741 L 8.843449237208562 2.879957480315295 L 8.843449237208562 2.5251626844223583 L 8.978976441850895 2.5251626844223583 M 9.728244368805612 2.987938505152276 Q 9.728244368805612 3.13448418171675 9.664337231657194 3.2237338042860917 Q 9.600430094508777 3.312983426855433 9.43405116848445 3.312983426855433 Q 9.341496004338467 3.312983426855433 9.268498627854283 3.2639512268019057 Q 9.1955012513701 3.2149190267483787 9.153906519864018 3.122088400804342 Q 9.112311788357935 3.0292577748603047 9.112311788357935 2.901994424159577 Q 9.112311788357935 2.789055086957633 9.155834752450392 2.7003563879843986 Q 9.199357716542849 2.6116576890111642 9.276762481795888 2.5617991035634766 Q 9.35416724704893 2.511940518115789 9.45278257075209 2.511940518115789 Q 9.51999524947715 2.511940518115789 9.564344598963766 2.522408066441823 Q 9.608693948450384 2.532875614767857 9.632934586679093 2.54719962826664 Q 9.657175224907803 2.5615236417654232 9.67645755077155 2.5802550440330627 L 9.615855955199775 2.7025600823688265 Q 9.57012929672289 2.641958486797052 9.454986265136517 2.641958486797052 Q 9.399893905525813 2.641958486797052 9.355269094241143 2.6744629789673673 Q 9.310644282956472 2.706967471137683 9.285301797535547 2.76536537232503 Q 9.259959312114624 2.8237632735123768 9.259959312114624 2.8986888825829347 Q 9.259959312114624 2.98904035234449 9.281720794160853 3.054875722079282 Q 9.303482276207081 3.120711091814074 9.343424236924841 3.1551438165707646 Q 9.383366197642601 3.1895765413274546 9.436254862868878 3.1895765413274546 Q 9.519444325881041 3.1895765413274546 9.556080745022161 3.1504609660038545 Q 9.592717164163279 3.1113453906802544 9.592717164163279 3.03201239284084 Q 9.592717164163279 3.0231976153031273 9.591615316971065 3.0022625186510594 L 9.43405116848445 3.0022625186510594 L 9.43405116848445 2.8810593275075096 L 9.721633285652327 2.8810593275075096 Q 9.728244368805612 2.949373853424783 9.728244368805612 2.987938505152276 M 9.853886153374829 2.5251626844223583 L 9.994922593978233 2.5251626844223583 L 9.994922593978233 3.2931501773955794 L 9.853886153374829 3.2931501773955794 L 9.853886153374829 2.5251626844223583 M 10.71991383594551 2.5251626844223583 L 10.71991383594551 3.3085760380865765 L 10.70889536402337 3.3085760380865765 L 10.340878401823863 2.888772257853008 L 10.306721138865226 2.8446983701644446 L 10.312230374826296 2.951577547809211 L 10.312230374826296 3.2931501773955794 L 10.176703170183963 3.2931501773955794 L 10.176703170183963 2.511940518115789 L 10.188823489298318 2.511940518115789 L 10.551331215536754 2.935049839926 L 10.589895867264248 2.985183887171741 L 10.584386631303177 2.879957480315295 L 10.584386631303177 2.5251626844223583 L 10.71991383594551 2.5251626844223583 M 11.324839780720183 3.168641444675387 L 11.324839780720183 3.2931501773955794 L 10.90173045890997 3.2931501773955794 L 10.90173045890997 2.5251626844223583 L 11.3028028368759 2.5251626844223583 L 11.3028028368759 2.645264028373694 L 11.039461357936732 2.645264028373694 L 11.039461357936732 2.8248651207045907 L 11.24881232445741 2.8248651207045907 L 11.24881232445741 2.9416609230792843 L 11.039461357936732 2.9416609230792843 L 11.039461357936732 3.168641444675387 L 11.324839780720183 3.168641444675387 M 11.882354015550188 3.168641444675387 L 11.882354015550188 3.2931501773955794 L 11.459244693739976 3.2931501773955794 L 11.459244693739976 2.5251626844223583 L 11.860317071705905 2.5251626844223583 L 11.860317071705905 2.645264028373694 L 11.596975592766738 2.645264028373694 L 11.596975592766738 2.8248651207045907 L 11.806326559287415 2.8248651207045907 L 11.806326559287415 2.9416609230792843 L 11.596975592766738 2.9416609230792843 L 11.596975592766738 3.168641444675387 L 11.882354015550188 3.168641444675387 M 12.357229710964136 3.2931501773955794 L 12.159999063557814 3.0154846849576287 L 12.159999063557814 3.2931501773955794 L 12.020064470146623 3.2931501773955794 L 12.020064470146623 2.5251626844223583 L 12.233822825436159 2.5251626844223583 Q 12.507080929105252 2.5251626844223583 12.507080929105252 2.7697727610938863 Q 12.507080929105252 2.8243141971084835 12.489451374029827 2.8769274005367067 Q 12.471821818954401 2.9295406039649294 12.431879858236641 2.9703089500768507 Q 12.39193789751888 3.011077296188772 12.329683531158784 3.0265031568797696 L 12.52801602575732 3.2931501773955794 L 12.357229710964136 3.2931501773955794 M 12.21839696474516 2.9460683118481406 Q 12.26522547041426 2.9460683118481406 12.298556347978735 2.9237559062058054 Q 12.331887225543213 2.9014435005634702 12.348965857022531 2.8642561578262447 Q 12.36604448850185 2.827068815089019 12.36604448850185 2.7829949274004555 Q 12.36604448850185 2.706967471137683 12.331060840149052 2.671157437390725 Q 12.296077191796254 2.635347403643767 12.215091423168518 2.635347403643767 L 12.159999063557814 2.635347403643767 L 12.159999063557814 2.9460683118481406 L 12.21839696474516 2.9460683118481406 M 12.652553811089025 2.5251626844223583 L 12.793590251692429 2.5251626844223583 L 12.793590251692429 3.2931501773955794 L 12.652553811089025 3.2931501773955794 L 12.652553811089025 2.5251626844223583 M 13.518581493659706 2.5251626844223583 L 13.518581493659706 3.3085760380865765 L 13.507563021737566 3.3085760380865765 L 13.139546059538059 2.888772257853008 L 13.105388796579422 2.8446983701644446 L 13.110898032540492 2.951577547809211 L 13.110898032540492 3.2931501773955794 L 12.975370827898159 3.2931501773955794 L 12.975370827898159 2.511940518115789 L 12.987491147012515 2.511940518115789 L 13.34999887325095 2.935049839926 L 13.388563524978444 2.985183887171741 L 13.383054289017373 2.879957480315295 L 13.383054289017373 2.5251626844223583 L 13.518581493659706 2.5251626844223583 M 14.267849420614423 2.987938505152276 Q 14.267849420614423 3.13448418171675 14.203942283466006 3.2237338042860917 Q 14.140035146317588 3.312983426855433 13.973656220293261 3.312983426855433 Q 13.881101056147278 3.312983426855433 13.808103679663095 3.2639512268019057 Q 13.735106303178911 3.2149190267483787 13.693511571672829 3.122088400804342 Q 13.651916840166747 3.0292577748603047 13.651916840166747 2.901994424159577 Q 13.651916840166747 2.789055086957633 13.695439804259204 2.7003563879843986 Q 13.73896276835166 2.6116576890111642 13.8163675336047 2.5617991035634766 Q 13.89377229885774 2.511940518115789 13.992387622560901 2.511940518115789 Q 14.059600301285961 2.511940518115789 14.103949650772577 2.522408066441823 Q 14.148299000259195 2.532875614767857 14.172539638487905 2.54719962826664 Q 14.196780276716614 2.5615236417654232 14.216062602580362 2.5802550440330627 L 14.155461007008586 2.7025600823688265 Q 14.1097343485317 2.641958486797052 13.994591316945328 2.641958486797052 Q 13.939498957334624 2.641958486797052 13.894874146049954 2.6744629789673673 Q 13.850249334765284 2.706967471137683 13.824906849344359 2.76536537232503 Q 13.799564363923436 2.8237632735123768 13.799564363923436 2.8986888825829347 Q 13.799564363923436 2.98904035234449 13.821325845969664 3.054875722079282 Q 13.843087328015892 3.120711091814074 13.883029288733653 3.1551438165707646 Q 13.922971249451413 3.1895765413274546 13.97585991467769 3.1895765413274546 Q 14.059049377689853 3.1895765413274546 14.095685796830972 3.1504609660038545 Q 14.13232221597209 3.1113453906802544 14.13232221597209 3.03201239284084 Q 14.13232221597209 3.0231976153031273 14.131220368779877 3.0022625186510594 L 13.973656220293261 3.0022625186510594 L 13.973656220293261 2.8810593275075096 L 14.261238337461139 2.8810593275075096 Q 14.267849420614423 2.949373853424783 14.267849420614423 2.987938505152276" fill="#3c50e0" fill-rule="nonzero"></path></g><g clip-path="url(#SvgjsClipPath1002)"><g clip-path="url(#a9e57ebb5-89d3-4b99-ab7e-01d5298800dd70a016bf-152d-4ad6-8c0a-0e5bc496aafd)"><path d=" M -0.40000000000000036 1.6466734318758836 C -0.40000000000000036 3.041966442671069 -1.5311432344351728 4.172912990750054 -2.926436245230359 4.172912990750054 C -4.321729256025545 4.172912990750054 -5.4528724904607175 3.041966442671069 -5.4528724904607175 1.6466734318758836 C -5.4528724904607175 0.2513804210806978 -4.321729256025545 -0.879762813354475 -2.926436245230359 -0.879762813354475 C -1.5311432344351728 -0.879762813354475 -0.40000000000000036 0.2513804210806978 -0.40000000000000036 1.6466734318758836" fill="#ffffff" transform="matrix(1,0,0,1,0,0)" fill-rule="nonzero"></path></g><g clip-path="url(#a9e57ebb5-89d3-4b99-ab7e-01d5298800dd70a016bf-152d-4ad6-8c0a-0e5bc496aafd)"><path d=" M -1.1483915852940063 3.4312087415664276 C -2.1349703479312567 4.417787504203678 -3.734817169161598 4.417787504203678 -4.72119924544266 3.4312087415664276 C -5.70777800807991 2.4446299789291777 -5.707974694436098 0.8447831576988363 -4.721395931798849 -0.14179560493841403 L -1.1483915852940063 3.4312087415664276" fill="#fde4d0" transform="matrix(1,0,0,1,0,0)" fill-rule="nonzero"></path></g><g clip-path="url(#SvgjsClipPath100070a016bf-152d-4ad6-8c0a-0e5bc496aafd)"><path d=" M -1.9644837065898688 1.8019022109700356 L -2.4243364073565936 1.8019022109700356 L -2.4243364073565936 3.1515639871296868 L -2.649148912479077 3.1515639871296868 L -2.649148912479077 2.261558225380572 L -3.1088049268896136 2.261558225380572 L -3.1088049268896136 3.1515639871296868 L -3.333814118368285 3.1515639871296868 L -3.333814118368285 1.6886108698059494 L -3.7936668191350096 1.6886108698059494 L -3.7936668191350096 3.1515639871296868 L -4.018479324257493 3.1515639871296868 L -4.018479324257493 2.789464405388224 L -4.478332025024218 2.789464405388224 L -4.478332025024218 3.1515639871296868 L -4.659283472716855 3.1515639871296868 L -4.659283472716855 3.234762315797062 L -1.7589464643737749 3.234762315797062 L -1.7589464643737749 3.1515639871296868 L -1.9644837065898688 3.1515639871296868 Z" fill="#3c50e0" transform="matrix(1,0,0,1,0,0)" fill-rule="nonzero"></path></g><g clip-path="url(#b9e57ebb5-89d3-4b99-ab7e-01d5298800dd70a016bf-152d-4ad6-8c0a-0e5bc496aafd)"><path d=" M -1.463876500618996 0.058627792016800684 C -1.5685111056577492 0.05865546980770353 -1.6637270920865297 0.11908199907074402 -1.7083024951484416 0.21374685410968697 C -1.752877898210354 0.30841170914863025 -1.7388014767428945 0.42030140424631623 -1.672167351821717 0.5009754070828245 L -2.132806798013192 1.1225042926357973 C -2.2381063735727347 1.077564107261038 -2.360294798478538 1.103797985722439 -2.437867336460237 1.1880008492462848 L -3.3318068253331035 0.8436030395617102 C -3.3314134526207284 0.839275939725582 -3.3310200799083534 0.8349488398894538 -3.3310200799083534 0.8304250536971378 C -3.331067568183807 0.7110931153335982 -3.409376740330025 0.6059181092054353 -3.5236857566007425 0.5716608097210762 C -3.63799477287146 0.5374035102367174 -3.761241227564147 0.5821742569578576 -3.8269115594347642 0.6818112043255047 C -3.8925818913053805 0.7814481516931517 -3.8851287951484172 0.9123624737284437 -3.808574552731978 1.0039024198546311 L -4.233220395741101 1.9312785892794124 C -4.363727114885612 1.8942353589833847 -4.501471566910901 1.9596884681932083 -4.5551794884793 2.084266410917559 C -4.6088874100477 2.2088443536419087 -4.561911849235026 2.3539337752249967 -4.445380445993438 2.42339338011284 C -4.32884904275185 2.492852985000683 -4.178881099611977 2.465153533753842 -4.094850590139332 2.358649645888672 C -4.010820080666688 2.2521457580235023 -4.018772545453905 2.0998486737678004 -4.113438404822823 2.0026757365755294 L -3.6929229752936283 1.0843471395353932 C -3.5742191421706604 1.1272700075733197 -3.441620096230988 1.0821716259598273 -3.3737010192010732 0.9757762709198106 L -2.5027738340021606 1.311519880932129 C -2.5306151231038077 1.4336187198707535 -2.470923744257385 1.5588498982667438 -2.358543377347822 1.614112154665426 C -2.246163010438259 1.6693744110641087 -2.1105381677310424 1.6401886132905636 -2.0308372098011986 1.5435914023884527 C -1.9511362518713544 1.4469941914863413 -1.9482414368736802 1.3082947726080894 -2.023842556685234 1.2084562302898003 L -1.5594660697261933 0.581420126763573 C -1.4581324100885675 0.620019313939411 -1.3435397209384599 0.5943114189053831 -1.2684062907254186 0.5161233412297446 C -1.1932728605123781 0.43793526355410606 -1.172149649002904 0.32240955122451265 -1.214754375238205 0.2226937293675748 C -1.2573591014735062 0.12297790751063675 -1.3554405827835687 0.05838376460465888 -1.463876500618996 0.058627792016800684" fill="#3c50e0" transform="matrix(1,0,0,1,0,0)" fill-rule="nonzero"></path></g></g></g><defs><clipPath id="SvgjsClipPath1002"><path d=" M -5.461231667950903 -0.8797628133544746 h 5.061231667950903 v 5.0526758041045285 h -5.061231667950903 Z"></path></clipPath><clipPath id="a9e57ebb5-89d3-4b99-ab7e-01d5298800dd70a016bf-152d-4ad6-8c0a-0e5bc496aafd"><path d=" M -5.461330003776786 4.172912990750054 L -0.40000000000000036 4.172912990750054 L -0.40000000000000036 -0.8797628133544755 L -5.461330003776786 -0.8797628133544755 Z"></path></clipPath><clipPath id="SvgjsClipPath100070a016bf-152d-4ad6-8c0a-0e5bc496aafd"><path d=" M -5.461231667950903 -0.8797628133544746 L -0.40000000000000036 -0.8797628133544746 L -0.40000000000000036 4.172912990750054 L -5.461231667950903 4.172912990750054 Z"></path></clipPath><clipPath id="b9e57ebb5-89d3-4b99-ab7e-01d5298800dd70a016bf-152d-4ad6-8c0a-0e5bc496aafd"><path d=" M -5.461330003776786 4.172912990750054 L -0.40000000000000036 4.172912990750054 L -0.40000000000000036 -0.8797628133544755 L -5.461330003776786 -0.8797628133544755 Z"></path></clipPath></defs></svg>